<?xml version="1.0" encoding="utf-8"?>
<!-- Generator: Adobe Illustrator 24.0.0, SVG Export Plug-In . SVG Version: 6.00 Build 0)  -->
<svg version="1.1" id="Layer_1" xmlns="http://www.w3.org/2000/svg" xmlns:xlink="http://www.w3.org/1999/xlink" x="0px" y="0px"
	 viewBox="0 0 200 40" style="enable-background:new 0 0 200 40;" xml:space="preserve">
<style type="text/css">
	.st0{fill:#A5A5A5;}
</style>
<g>
	<path class="st0" d="M57.4,17.23c-0.24-0.38-0.39-0.78-0.44-1.21c-0.16-1.07-0.13-2.12,0.1-3.13c0.23-1.02,0.57-1.98,1.02-2.89
		c-0.27,0.05-0.53,0.12-0.78,0.2c-0.25,0.08-0.52,0.15-0.78,0.2c-0.38,0.11-0.72,0.11-1.02,0c-0.31-0.11-0.54-0.4-0.7-0.88
		c-0.05-0.43,0.04-0.77,0.28-1.02c0.24-0.25,0.58-0.44,1-0.54c0.59-0.19,1.29-0.37,2.09-0.54c0.8-0.17,1.64-0.33,2.51-0.46
		c0.87-0.13,1.72-0.25,2.55-0.34c0.83-0.09,1.57-0.14,2.21-0.14c0.46,0,0.9,0.07,1.33,0.2c0.43,0.13,0.66,0.31,0.68,0.52
		c0,0.24-0.09,0.44-0.28,0.6c-0.19,0.16-0.42,0.3-0.68,0.42c-0.27,0.12-0.54,0.21-0.8,0.28c-0.27,0.07-0.5,0.11-0.68,0.14
		c-1.88,0.32-3.78,0.68-5.71,1.09c0.24,0.35,0.42,0.7,0.52,1.04c0.11,0.35,0.13,0.67,0.08,0.96c-0.08,0.35-0.17,0.74-0.26,1.17
		c-0.09,0.43-0.17,0.87-0.24,1.33c-0.07,0.46-0.09,0.9-0.08,1.33c0.01,0.43,0.09,0.8,0.22,1.13l0.2,0.44
		c1.31-1.26,2.52-3.13,3.62-5.63c0.16-0.38,0.35-0.65,0.56-0.82c0.21-0.17,0.51-0.15,0.88,0.06c0.38,0.21,0.59,0.48,0.64,0.8
		c0.05,0.32,0.03,0.67-0.08,1.04c-0.29,1.15-0.73,2.14-1.31,2.95c-0.58,0.82-1.24,1.48-1.99,1.99c0.29-0.08,0.68-0.17,1.15-0.26
		c0.47-0.09,0.96-0.18,1.47-0.26c0.51-0.08,1.01-0.13,1.51-0.16c0.5-0.03,0.93-0.03,1.31,0c0.48,0.05,0.89,0.16,1.23,0.32
		c0.33,0.16,0.52,0.43,0.54,0.8c0,0.3-0.13,0.52-0.4,0.68c-0.27,0.16-0.6,0.25-1,0.28c-0.72,0.03-1.47,0.11-2.23,0.26
		c-0.76,0.15-1.54,0.31-2.33,0.48c-0.79,0.17-1.57,0.36-2.33,0.54c-0.76,0.19-1.48,0.35-2.15,0.48c-0.19,0.03-0.42,0.04-0.68,0.04
		c-0.27,0-0.54-0.03-0.8-0.08c-0.27-0.05-0.5-0.15-0.68-0.3c-0.19-0.15-0.29-0.37-0.32-0.66c-0.03-0.13,0.03-0.28,0.18-0.44
		c0.15-0.16,0.33-0.27,0.54-0.32c0.56-0.21,1.04-0.47,1.45-0.76v-0.04C58,17.9,57.64,17.61,57.4,17.23z M65.43,35.68
		c-0.54,0.05-0.88-0.07-1.02-0.38c-0.15-0.31-0.26-0.65-0.34-1.03c-0.13-0.59-0.21-1.3-0.24-2.13c-0.03-0.83-0.02-1.67,0.02-2.51
		c0.04-0.84,0.09-1.66,0.16-2.45c0.07-0.79,0.13-1.47,0.18-2.03c-1.18,0.19-2.3,0.37-3.36,0.54c-1.06,0.17-1.99,0.34-2.79,0.5
		c-0.62,0.13-1.22,0.17-1.81,0.12c-0.59-0.05-0.94-0.28-1.04-0.68c-0.05-0.38,0.11-0.7,0.48-0.98c0.37-0.28,0.8-0.49,1.29-0.62
		c0.86-0.21,1.88-0.44,3.07-0.68c1.19-0.24,2.41-0.47,3.66-0.68c1.25-0.21,2.46-0.41,3.64-0.58c1.18-0.17,2.2-0.3,3.05-0.38
		c0.29-0.03,0.62-0.01,0.96,0.04c0.35,0.05,0.52,0.34,0.52,0.84c0,0.35-0.15,0.67-0.44,0.96c-0.29,0.29-0.64,0.48-1.04,0.56
		c-0.62,0.13-1.25,0.25-1.91,0.36c-0.66,0.11-1.33,0.21-2.03,0.32c0.08,0.16,0.14,0.33,0.18,0.5c0.04,0.17,0.07,0.33,0.1,0.46
		c-0.05,0.67-0.11,1.39-0.16,2.17c-0.05,0.78-0.1,1.55-0.14,2.33c-0.04,0.78-0.07,1.53-0.08,2.25c-0.01,0.72,0.01,1.35,0.06,1.89
		c0.05,0.32-0.04,0.62-0.28,0.88S65.65,35.68,65.43,35.68z"/>
	<path class="st0" d="M83.36,8.43c-0.24,0.43-0.64,0.93-1.19,1.51c-0.55,0.58-1.06,1.09-1.55,1.55c0.43-0.08,0.91-0.13,1.45-0.16
		c0.75-0.05,1.22,0.14,1.41,0.58c0.19,0.44,0.13,0.94-0.16,1.51c-0.13,0.27-0.31,0.6-0.52,0.98c-0.21,0.39-0.44,0.8-0.66,1.25
		c-0.23,0.44-0.45,0.89-0.66,1.35c-0.21,0.46-0.4,0.87-0.56,1.25c1.18-0.35,2.36-0.64,3.56-0.86c1.19-0.23,2.31-0.37,3.36-0.42
		c0.4-0.03,0.79,0.11,1.17,0.4c0.38,0.29,0.56,0.56,0.56,0.8s-0.11,0.48-0.34,0.72c-0.23,0.24-0.5,0.35-0.82,0.32
		c-1.1,0.05-2.28,0.23-3.56,0.52c-1.27,0.29-2.45,0.59-3.52,0.88c-0.4,0.11-0.81,0.17-1.23,0.2c-0.42,0.03-0.77-0.03-1.06-0.16
		c-0.24-0.13-0.43-0.33-0.56-0.6c-0.13-0.27-0.15-0.64-0.04-1.13c0.05-0.32,0.17-0.7,0.34-1.13c0.17-0.43,0.38-0.88,0.62-1.37
		s0.49-0.95,0.74-1.41c0.25-0.46,0.5-0.87,0.74-1.25c-0.29,0.05-0.57,0.11-0.82,0.16c-0.25,0.05-0.53,0.11-0.82,0.16
		c-0.4,0.11-0.77,0.07-1.11-0.1c-0.33-0.17-0.58-0.38-0.74-0.62s-0.22-0.51-0.18-0.8c0.04-0.29,0.21-0.59,0.5-0.88
		c0.7-0.67,1.33-1.32,1.91-1.95c0.58-0.63,1.1-1.29,1.59-1.99c-0.35-0.13-0.82-0.2-1.43-0.2c-0.6,0-1.13,0-1.59,0
		c-0.21,0-0.44-0.1-0.66-0.3c-0.23-0.2-0.36-0.42-0.38-0.66c0-0.29,0.11-0.56,0.32-0.78c0.21-0.23,0.51-0.37,0.88-0.42
		c0.54-0.05,1.11-0.07,1.73-0.04c0.62,0.03,1.22,0.15,1.81,0.36c0.78,0.3,1.3,0.69,1.57,1.19C83.71,7.38,83.68,7.89,83.36,8.43z
		 M80.5,26.35C80,26.41,79.49,26.4,79,26.33c-0.5-0.07-0.81-0.37-0.94-0.9c-0.03-0.35,0.13-0.65,0.48-0.9
		c0.35-0.25,0.83-0.46,1.45-0.62c2.33-0.56,4.48-1.01,6.45-1.35s3.92-0.52,5.85-0.54c0.24,0.05,0.44,0.15,0.58,0.28
		c0.15,0.13,0.23,0.28,0.26,0.44c0.03,0.29-0.05,0.55-0.22,0.76c-0.17,0.21-0.53,0.36-1.06,0.44c-0.91,0.19-1.78,0.36-2.61,0.5
		c-0.83,0.15-1.69,0.32-2.57,0.5c-0.88,0.19-1.82,0.39-2.81,0.6S81.74,26.03,80.5,26.35z M85.97,29.13
		c-0.13,0.48-0.26,1.09-0.38,1.83c-0.12,0.74-0.21,1.45-0.26,2.15c0.56-0.11,1.08-0.22,1.57-0.34c0.48-0.12,0.94-0.25,1.39-0.38
		c0.44-0.13,0.88-0.28,1.33-0.44c0.44-0.16,0.92-0.35,1.43-0.56c0.29-0.13,0.57-0.25,0.82-0.36c0.25-0.11,0.5-0.13,0.74-0.08
		c0.29,0.05,0.53,0.17,0.7,0.34s0.15,0.42-0.06,0.74c-0.27,0.43-0.52,0.76-0.76,0.98c-0.24,0.23-0.6,0.49-1.08,0.78
		c-1.63,0.96-3.66,1.61-6.07,1.93c-0.43,0.05-0.82,0.04-1.19-0.04c-0.36-0.08-0.67-0.21-0.92-0.38c-0.25-0.17-0.46-0.38-0.6-0.62
		c-0.15-0.24-0.21-0.5-0.18-0.76c0.05-0.8,0.2-1.67,0.44-2.61c0.24-0.94,0.56-1.79,0.96-2.57c0.21-0.38,0.46-0.68,0.72-0.92
		c0.27-0.24,0.55-0.33,0.84-0.28c0.35,0.11,0.56,0.31,0.62,0.6C86.1,28.42,86.08,28.75,85.97,29.13z"/>
	<path class="st0" d="M107.87,16.83c-0.11,0.59-0.26,1.23-0.46,1.93c-0.2,0.7-0.43,1.41-0.68,2.15c-0.25,0.74-0.51,1.47-0.76,2.19
		c-0.25,0.72-0.5,1.39-0.74,2.01c0.43-0.16,0.92-0.38,1.47-0.64s1.11-0.56,1.69-0.88c0.58-0.32,1.14-0.64,1.69-0.96
		c0.55-0.32,1.02-0.62,1.43-0.88c0.54-0.32,0.96-0.27,1.29,0.16c0.13,0.19,0.15,0.5,0.06,0.94s-0.42,0.89-0.98,1.35
		c-0.4,0.29-0.88,0.62-1.43,0.96c-0.55,0.35-1.15,0.7-1.81,1.07c-0.66,0.36-1.36,0.72-2.11,1.06c-0.75,0.35-1.54,0.66-2.37,0.92
		c-0.27,0.11-0.58,0.17-0.92,0.2c-0.35,0.03-0.66-0.07-0.92-0.28c-0.29-0.27-0.43-0.58-0.4-0.92c0.03-0.35,0.12-0.71,0.28-1.08
		c0.16-0.46,0.41-1.12,0.74-1.99c0.33-0.87,0.68-1.79,1.02-2.75c0.35-0.96,0.67-1.88,0.96-2.75c0.29-0.87,0.48-1.55,0.56-2.03
		c0.03-0.16-0.08-0.22-0.32-0.18s-0.53,0.12-0.86,0.24s-0.7,0.27-1.08,0.44c-0.39,0.17-0.7,0.33-0.94,0.46
		c-0.11,0.05-0.25,0.11-0.42,0.16c-0.17,0.05-0.36,0.05-0.54,0c0.03,1.15,0.07,2.28,0.12,3.38c0.05,1.1,0.11,2.2,0.16,3.29
		c0,0.83-0.28,1.25-0.84,1.25c-0.19-0.03-0.44-0.1-0.74-0.22c-0.31-0.12-0.52-0.46-0.62-1.03c-0.29-1.61-0.47-3.32-0.52-5.12
		c-0.05-1.81-0.07-3.68-0.04-5.61c0.05-0.4,0.13-0.72,0.24-0.96c0.11-0.24,0.35-0.35,0.72-0.32c0.43,0.03,0.8,0.21,1.1,0.56
		c0.31,0.35,0.45,0.71,0.42,1.08c0,0.21-0.01,0.42-0.02,0.6c-0.01,0.19-0.02,0.38-0.02,0.56c0.62-0.38,1.35-0.72,2.21-1.04
		c0.86-0.32,1.7-0.46,2.53-0.4c0.56,0.03,0.98,0.14,1.27,0.34c0.28,0.2,0.48,0.46,0.6,0.76c0.12,0.31,0.17,0.64,0.16,0.98
		C108,16.17,107.95,16.51,107.87,16.83z M117.96,24.06c0,0.46-0.12,0.77-0.36,0.94c-0.24,0.17-0.52,0.25-0.84,0.22
		c-0.21-0.03-0.48-0.13-0.78-0.32c-0.31-0.19-0.49-0.5-0.54-0.92c-0.19-1.13-0.35-2.29-0.48-3.5c-0.13-1.21-0.23-2.4-0.28-3.6
		c-0.05-1.19-0.09-2.34-0.1-3.44c-0.01-1.1,0.01-2.1,0.06-3.01c0-0.24,0.07-0.56,0.22-0.94c0.15-0.39,0.37-0.58,0.66-0.58
		c0.43,0.05,0.79,0.29,1.08,0.72c0.29,0.43,0.47,0.79,0.52,1.08c-0.03,0.91-0.03,1.8,0,2.67c0.03,0.87,0.07,1.73,0.12,2.59
		c0.54-0.19,1.12-0.35,1.75-0.48c0.63-0.13,1.25-0.24,1.85-0.32c0.6-0.08,1.16-0.14,1.67-0.18c0.51-0.04,0.92-0.07,1.25-0.1
		c0.83-0.03,1.33,0.29,1.49,0.96c0.05,0.21,0.02,0.46-0.1,0.74c-0.12,0.28-0.36,0.46-0.7,0.54c-0.43,0.13-0.88,0.24-1.37,0.32
		c-0.48,0.08-0.98,0.15-1.49,0.22c-0.51,0.07-1,0.11-1.47,0.12c-0.47,0.01-0.9,0.02-1.31,0.02c-0.59,0-1.07-0.09-1.45-0.28
		C117.52,19.72,117.72,21.89,117.96,24.06z"/>
	<path class="st0" d="M142.11,15.94c-1.63,0.21-3.32,0.55-5.04,1c-1.73,0.46-3.34,0.91-4.84,1.37c-0.48,0.13-0.9,0.12-1.25-0.04
		c-0.35-0.16-0.59-0.48-0.72-0.96c-0.05-0.13-0.01-0.33,0.12-0.58c0.13-0.25,0.36-0.45,0.68-0.58c0.78-0.29,1.61-0.58,2.51-0.84
		c0.9-0.27,1.8-0.51,2.71-0.72c0.91-0.21,1.79-0.4,2.63-0.56s1.59-0.28,2.23-0.36c0.35-0.05,0.67-0.01,0.96,0.12
		c0.29,0.13,0.58,0.39,0.84,0.76c0.21,0.32,0.23,0.62,0.04,0.9C142.81,15.72,142.51,15.89,142.11,15.94z M137.17,5.18
		c0.51,0.05,0.9,0.23,1.17,0.52c0.27,0.3,0.4,0.67,0.4,1.13c0,0.56-0.11,1.1-0.32,1.61c-0.21,0.51-0.52,0.96-0.9,1.37
		c-0.39,0.4-0.84,0.74-1.35,1.02s-1.06,0.48-1.65,0.58c-0.4,0.08-0.76,0.09-1.06,0.04c-0.31-0.05-0.58-0.13-0.82-0.22
		c-0.24-0.09-0.44-0.19-0.6-0.3c-0.16-0.11-0.27-0.2-0.32-0.28c-0.35-0.4-0.53-0.86-0.54-1.39c-0.01-0.52,0.07-1.04,0.26-1.57
		s0.46-1.02,0.8-1.51c0.35-0.48,0.71-0.88,1.08-1.21c0.35-0.29,0.72-0.55,1.13-0.76c0.4-0.21,0.83-0.35,1.29-0.4
		c0.43-0.03,0.76,0.13,0.98,0.46C136.93,4.61,137.09,4.91,137.17,5.18z M141.35,23.1c-0.24,0.19-0.52,0.46-0.82,0.82
		c-0.31,0.36-0.63,0.74-0.96,1.15c-0.33,0.4-0.66,0.79-0.96,1.17c-0.31,0.38-0.58,0.68-0.82,0.92c0.75-0.05,1.52-0.03,2.31,0.06
		c0.79,0.09,1.35,0.24,1.67,0.42c0.48,0.29,0.74,0.68,0.78,1.17c0.04,0.48-0.13,1.03-0.5,1.65c-0.27,0.51-0.56,0.96-0.88,1.37
		c-0.32,0.4-0.65,0.8-0.98,1.19c-0.34,0.39-0.66,0.79-0.99,1.21c-0.32,0.42-0.62,0.89-0.88,1.43c1.07-0.21,2.23-0.49,3.48-0.82
		c1.25-0.33,2.31-0.66,3.19-0.98c0.38-0.13,0.7-0.17,0.98-0.1c0.28,0.07,0.5,0.18,0.66,0.34c0.21,0.21,0.32,0.51,0.3,0.88
		s-0.21,0.66-0.58,0.84c-1.15,0.62-2.49,1.16-4.02,1.63c-1.53,0.47-3.03,0.84-4.5,1.1c-1.13,0.21-1.96,0.03-2.51-0.54
		s-0.6-1.35-0.14-2.31c0.35-0.67,0.7-1.25,1.04-1.75c0.35-0.5,0.7-0.96,1.07-1.41c0.36-0.44,0.73-0.88,1.1-1.33
		c0.38-0.44,0.79-0.97,1.25-1.59c-0.35-0.03-0.73-0.04-1.15-0.04s-0.82,0.01-1.23,0.04c-0.4,0.03-0.78,0.06-1.13,0.1
		c-0.35,0.04-0.62,0.06-0.8,0.06c-0.24,0-0.46-0.07-0.64-0.2c-0.19-0.13-0.33-0.31-0.42-0.54c-0.09-0.23-0.13-0.49-0.1-0.78
		c0.03-0.29,0.15-0.59,0.36-0.88c0.19-0.24,0.46-0.56,0.8-0.95c0.35-0.39,0.71-0.79,1.08-1.21c0.38-0.42,0.75-0.82,1.13-1.23
		c0.38-0.4,0.7-0.76,0.96-1.08c-0.62,0.03-1.32,0.13-2.11,0.32c-0.79,0.19-1.45,0.35-1.99,0.48c-0.59,0.16-1.02,0.08-1.29-0.24
		c-0.27-0.32-0.42-0.63-0.44-0.92c-0.03-0.29,0.08-0.54,0.32-0.74s0.52-0.35,0.84-0.46c1.93-0.64,3.8-0.94,5.63-0.88
		c0.62,0.05,1.09,0.17,1.43,0.36s0.57,0.42,0.7,0.68c0.16,0.3,0.21,0.6,0.16,0.9C141.69,22.7,141.56,22.94,141.35,23.1z
		 M136.36,7.43c0-0.19-0.06-0.39-0.18-0.62c-0.12-0.23-0.25-0.33-0.38-0.3c-0.24,0.08-0.49,0.22-0.74,0.42
		c-0.26,0.2-0.48,0.42-0.68,0.64c-0.2,0.23-0.36,0.46-0.46,0.68c-0.11,0.23-0.16,0.44-0.16,0.62c0.62,0,1.15-0.15,1.59-0.46
		C135.78,8.1,136.12,7.77,136.36,7.43z"/>
</g>
</svg>
