<?xml version="1.0" encoding="utf-8"?>
<!-- Generator: Adobe Illustrator 24.0.0, SVG Export Plug-In . SVG Version: 6.00 Build 0)  -->
<svg version="1.1" id="Layer_1" xmlns="http://www.w3.org/2000/svg" xmlns:xlink="http://www.w3.org/1999/xlink" x="0px" y="0px"
	 viewBox="0 0 50 50" style="enable-background:new 0 0 50 50;" xml:space="preserve">
<style type="text/css">
	.st0{fill:#092E94;}
	.st1{fill:#8D8D8E;}
</style>
<g id="icon_mypd" transform="translate(-4353 -1170)">
	<g>
		<g id="그룹_4848_8_" transform="translate(4355 1172)">
			<g>
				<g id="그룹_4847_8_" transform="translate(0 0)">
					<path id="패스_594_8_" class="st0" d="M23.8,21.6l-0.4,0.3l0,6L14.9,28v-6.1l-0.4-0.3c-3.4-2.4-4.1-7.1-1.7-10.5
						c0.5-0.7,1.1-1.2,1.7-1.7l0.4-0.2l0-6l8.6,0V6c0.1-0.2,0.3-0.4,0.5-0.5c0.4-0.4,0.9-0.8,1.3-1.1V3.2c0-1-0.8-1.8-1.8-1.8h-8.6
						c-1,0-1.8,0.8-1.8,1.8v5.1c-4.1,3.2-4.7,9.1-1.5,13.1c0.4,0.5,0.9,1,1.4,1.4V28c0,1,0.8,1.8,1.8,1.8h8.6c1,0,1.8-0.8,1.8-1.8
						v-5.2c0.8-0.6,1.4-1.2,1.9-2c-0.6-0.2-1.1-0.5-1.6-0.8C25,20.6,24.4,21.2,23.8,21.6"/>
					<path id="패스_595_8_" class="st0" d="M31.1,4.4c-2.1,0-4.1,0.8-5.5,2.3c-1.5,1.4-2.3,3.4-2.3,5.5c0,4.3,3.5,7.7,7.8,7.7
						c4.3,0,7.8-3.4,7.9-7.8C38.9,7.8,35.4,4.3,31.1,4.4 M31.1,17.9c-3.2,0-5.8-2.5-5.8-5.8s2.5-5.8,5.8-5.8l0,0
						c1.6,0,3.1,0.6,4.2,1.7c1.1,1.1,1.7,2.5,1.7,4.1C36.9,15.3,34.3,17.9,31.1,17.9"/>
					<path id="패스_596_8_" class="st0" d="M34.3,11h-2.2V9c0-0.6-0.5-1.1-1.1-1.1c-0.6,0-1,0.5-1.1,1.1v2h-2.2
						c-0.6,0-1.1,0.5-1.1,1.1c0,0.6,0.4,1.1,1,1.1c0,0,0.1,0,0.1,0H30v2c0,0.6,0.5,1.1,1.1,1c0.6,0,1-0.5,1-1v-2h2.2
						c0.6,0,1.1-0.5,1.1-1.1C35.5,11.5,35,11,34.3,11C34.4,11,34.4,11,34.3,11"/>
					<path id="패스_597_8_" class="st0" d="M19.2,23.2c-4.2,0-7.6-3.4-7.6-7.6s3.4-7.6,7.6-7.6l0,0c0.9,0,1.8,0.2,2.7,0.5
						c0.2-0.6,0.5-1.1,0.9-1.6c-1.1-0.4-2.4-0.7-3.6-0.7c-5.2-0.1-9.5,4-9.6,9.3c-0.1,5.2,4.1,9.5,9.2,9.6c0.1,0,0.3,0,0.4,0
						c3.2,0,6.1-1.6,8-4.2c-0.6-0.2-1.1-0.5-1.7-0.8C24.1,22,21.7,23.2,19.2,23.2"/>
				</g>
			</g>
		</g>
	</g>
</g>
<g>
	<path class="st1" d="M7.4,39v-0.9h2.2v-0.9h1.1v0.9h2.2V39H7.4z M12.4,40.8c0,0.4-0.2,0.8-0.6,1.1c-0.4,0.3-1,0.4-1.7,0.4
		c-0.7,0-1.3-0.1-1.7-0.4c-0.4-0.3-0.6-0.6-0.6-1.1c0-0.4,0.2-0.8,0.6-1.1c0.4-0.3,1-0.4,1.7-0.4c0.7,0,1.3,0.1,1.7,0.4
		C12.2,40,12.4,40.4,12.4,40.8z M14.7,46.4H8.8v-2.3h4.6v-0.5H8.8v-0.9h5.7V45H9.9v0.6h4.8V46.4z M9,40.8c0,0.2,0.1,0.3,0.3,0.4
		s0.5,0.2,0.8,0.2s0.7-0.1,0.8-0.2c0.2-0.1,0.3-0.3,0.3-0.4c0-0.2-0.1-0.4-0.3-0.5c-0.2-0.1-0.5-0.2-0.8-0.2c-0.4,0-0.7,0.1-0.8,0.2
		C9.1,40.5,9,40.6,9,40.8z M15.9,40.7h-1.4v1.7h-1.1v-4.9h1.1v2.3h1.4V40.7z"/>
	<path class="st1" d="M16.8,40.1c0-0.3,0.1-0.6,0.2-0.9c0.1-0.3,0.3-0.5,0.5-0.8c0.2-0.2,0.5-0.4,0.8-0.5s0.6-0.2,1-0.2
		c0.4,0,0.7,0.1,1,0.2c0.3,0.1,0.5,0.3,0.8,0.5c0.2,0.2,0.4,0.4,0.5,0.8c0.1,0.3,0.2,0.6,0.2,0.9c0,0.3-0.1,0.6-0.2,0.9
		c-0.1,0.3-0.3,0.5-0.5,0.8c-0.2,0.2-0.5,0.4-0.8,0.5c-0.3,0.1-0.6,0.2-1,0.2c-0.4,0-0.7-0.1-1-0.2c-0.3-0.1-0.5-0.3-0.8-0.5
		s-0.4-0.5-0.5-0.8C16.9,40.8,16.8,40.5,16.8,40.1z M18,40.1c0,0.2,0,0.4,0.1,0.5c0.1,0.2,0.2,0.3,0.2,0.4c0.1,0.1,0.2,0.2,0.4,0.3
		c0.1,0.1,0.3,0.1,0.5,0.1c0.2,0,0.4,0,0.5-0.1c0.1-0.1,0.3-0.2,0.4-0.3c0.1-0.1,0.2-0.3,0.3-0.4c0.1-0.2,0.1-0.4,0.1-0.5
		c0-0.2,0-0.4-0.1-0.6c-0.1-0.2-0.1-0.3-0.3-0.4c-0.1-0.1-0.3-0.2-0.4-0.3c-0.2-0.1-0.3-0.1-0.5-0.1c-0.4,0-0.7,0.1-0.9,0.4
		C18.1,39.4,18,39.8,18,40.1z M24.3,46.3h-5.9v-2.8h1.1v1.9h4.8V46.3z M24.1,43.9h-1.1v-6.5h1.1V43.9z"/>
	<path class="st1" d="M26.1,42v-4.3h1.1v1.3h2v-1.3h1.1V42H26.1z M29.1,40h-2v1.1h2V40z M27.2,46.4V43h5.6V44h-4.5v1.4h4.7v0.9
		L27.2,46.4L27.2,46.4z M34.2,40.4h-1.4v2.3h-1.1v-5.2h1.1v1.9h1.4V40.4z"/>
	<path class="st1" d="M34.9,43.9c0.6-0.3,1.1-0.7,1.6-1s0.8-0.8,1.1-1.2c0.3-0.4,0.5-0.8,0.7-1.3c0.1-0.4,0.3-0.9,0.3-1.3
		c-0.8,0-1.5,0-2.2,0h-1v-0.9h3c0.2,0,0.5,0,0.7,0s0.5,0,0.8,0c-0.1,0.7-0.1,1.4-0.3,2c-0.2,0.6-0.4,1.2-0.8,1.7s-0.8,1-1.3,1.5
		c-0.5,0.5-1.1,0.9-1.8,1.3L34.9,43.9z M41.2,37.5h1.1v9.1h-1.1V37.5z"/>
</g>
</svg>
