<?xml version="1.0" encoding="utf-8"?>
<!-- Generator: Adobe Illustrator 24.0.0, SVG Export Plug-In . SVG Version: 6.00 Build 0)  -->
<svg version="1.1" id="Coupon" xmlns="http://www.w3.org/2000/svg" xmlns:xlink="http://www.w3.org/1999/xlink" x="0px" y="0px"
	 viewBox="0 0 50 50" style="enable-background:new 0 0 50 50;" xml:space="preserve">
<style type="text/css">
	.st0{fill:#092E94;}
	.st1{fill:#8D8D8E;}
</style>
<path id="coupon-2" class="st0" d="M38.7,4.8c0.4,0,0.8,0.3,0.8,0.8v5.3c0,0.4-0.4,0.8-0.8,0.8c-1.6,0-3.1,1-3.6,2.6
	c-0.7,2,0.4,4.1,2.4,4.8c0.4,0.1,0.7,0.2,1.1,0.2h0.1c0.4,0,0.7,0.3,0.8,0.8v5.3c0,0.4-0.3,0.8-0.8,0.8H11.4c-0.4,0-0.8-0.3-0.8-0.8
	V5.6c0-0.4,0.3-0.8,0.8-0.8L38.7,4.8L38.7,4.8z M37.9,6.4H20.1v2.1h-1.6V6.4h-6.3v18.1h6.4v-1.7h1.6v1.7h17.8v-3.8h-0.1
	c-2.9-0.5-4.9-3.2-4.4-6.1c0-0.2,0.1-0.4,0.2-0.6l0-0.1l0-0.1c0.6-1.9,2.2-3.2,4.1-3.6l0.1,0l0.1,0L37.9,6.4L37.9,6.4z M20.1,17v2.8
	h-1.6V17H20.1z M20.1,11.3v2.8h-1.6v-2.8H20.1z"/>
<g>
	<path class="st1" d="M8.3,37.9h2.5c0.5,0,0.9,0,1.3,0c0.4,0,0.8-0.1,1.2-0.1c0-0.2,0-0.3,0-0.5s0-0.3,0-0.4H8.4v-0.9h5.9
		c0,0.4,0,0.7,0,1s-0.1,0.7-0.1,1.1c0,0.4-0.1,0.7-0.1,1C14,39.4,14,39.7,14,40h1.6V41H12v3.5h-1.1V41H7.2V40h5.7
		c0.1-0.2,0.1-0.4,0.1-0.7l0.1-0.7c-0.4,0.1-0.8,0.1-1.2,0.1c-0.4,0-0.8,0-1.3,0H8.3V37.9z"/>
	<path class="st1" d="M22.6,36.7l-0.1,1.8h1.3v0.9H21v0.9h3.8v0.9h-8.6v-0.9h3.7v-0.9h-2.7v-0.9h1.2l-0.1-1.8h-1v-0.9h6.2v0.9H22.6z
		 M23.6,44.4h-6.1v-2.6h1.1v1.7h4.9L23.6,44.4L23.6,44.4z M21.4,38.5l0.1-1.8h-1.9l0.1,1.8H21.4z"/>
	<path class="st1" d="M25.9,36.3h4.2v0.9h-3.1v4.1h0.8c0.6,0,1.2,0,1.7-0.1c0.5-0.1,1-0.2,1.5-0.3v0.9c-0.2,0.1-0.5,0.1-0.7,0.2
		c-0.3,0.1-0.5,0.1-0.8,0.1c-0.3,0-0.6,0.1-0.9,0.1c-0.3,0-0.6,0-0.9,0h-1.7V36.3z M34,39.8h-1.4v4.8h-1.1v-9.1h1.1v3.3H34V39.8z"/>
	<path class="st1" d="M39.5,42.6h-1.1v-1.8h-3.9v-0.9h8.6v0.9h-3.6L39.5,42.6L39.5,42.6z M41.8,37.4c0,0.3-0.1,0.5-0.2,0.8
		c-0.1,0.2-0.3,0.5-0.6,0.6c-0.2,0.1-0.6,0.3-0.9,0.4c-0.4,0.1-0.8,0.2-1.3,0.2s-0.9-0.1-1.3-0.2c-0.4-0.1-0.7-0.2-0.9-0.4
		c-0.2-0.2-0.5-0.4-0.6-0.6c-0.1-0.2-0.2-0.5-0.2-0.8c0-0.3,0.1-0.5,0.2-0.8c0.1-0.2,0.3-0.4,0.6-0.6c0.2-0.2,0.6-0.3,0.9-0.4
		c0.4-0.1,0.8-0.1,1.3-0.1s0.9,0.1,1.3,0.1c0.4,0.1,0.7,0.2,0.9,0.4s0.5,0.4,0.6,0.6C41.7,36.9,41.8,37.1,41.8,37.4z M42,44.4h-6.2
		v-2.7h1.1v1.8h5V44.4z M40.7,37.4c0-0.3-0.1-0.5-0.4-0.7c-0.3-0.2-0.8-0.3-1.4-0.3c-0.7,0-1.1,0.1-1.4,0.3
		c-0.3,0.2-0.5,0.4-0.5,0.7c0,0.3,0.2,0.5,0.5,0.7s0.8,0.3,1.4,0.3s1.1-0.1,1.4-0.3S40.7,37.7,40.7,37.4z"/>
</g>
</svg>
