<?xml version="1.0" encoding="utf-8"?>
<!-- Generator: Adobe Illustrator 24.0.0, SVG Export Plug-In . SVG Version: 6.00 Build 0)  -->
<svg version="1.1" id="Gift" xmlns="http://www.w3.org/2000/svg" xmlns:xlink="http://www.w3.org/1999/xlink" x="0px" y="0px"
	 viewBox="0 0 50 50" style="enable-background:new 0 0 50 50;" xml:space="preserve">
<style type="text/css">
	.st0{fill:#092E94;}
	.st1{fill:#8D8D8E;}
</style>
<path id="gift-2" class="st0" d="M31.8,3.1c1.8,0,3.2,1.5,3.2,3.2c0,0.4-0.1,0.8-0.2,1.2h2.9c0.6,0,1.1,0.5,1.1,1v6.4
	c0,0.6-0.5,1.1-1,1.1h-1.5v13.1c0,0.6-0.5,1.1-1,1.1h-19c-0.6,0-1.1-0.5-1.1-1V16h-1.4c-0.6,0-1.1-0.5-1.1-1V8.6
	c0-0.6,0.5-1.1,1-1.1h3C16,5.9,16.7,4,18.4,3.3c0.9-0.4,1.9-0.3,2.8,0.2l0.1,0l0.1,0.1l0.1,0.1c0.2,0.1,0.6,0.3,1,0.6l0.1,0.1
	c0.9,0.6,2,1.3,3.2,2.3l-0.1,0.1L26,6.3c1-0.8,2-1.5,2.8-2L29,4.3c0.5-0.3,0.9-0.6,1.2-0.7l0.1-0.1l0.1,0c0.4-0.2,0.9-0.4,1.4-0.4
	H31.8z M21.8,16h-5.1v12.6h5.1C21.8,28.7,21.8,16,21.8,16z M28.1,16h-4.7v12.6h4.7V16z M34.7,16h-5.1v12.6h5.1V16z M21.8,9.1h-7.6
	v5.4h7.6V9.1z M28.1,9.1h-4.7v5.4h4.7V9.1z M37.2,9.1h-7.6v5.4h7.6V9.1z M31.8,4.7c-0.3,0-0.5,0.1-0.7,0.2L31,4.9l-0.1,0l0,0
	c0,0-0.1,0.1-0.3,0.1c-0.2,0.1-0.5,0.3-0.8,0.4l-0.1,0.1C29,6.1,28.1,6.7,27,7.5h5.9c0.7-0.6,0.7-1.6,0.1-2.3
	C32.7,4.9,32.3,4.7,31.8,4.7z M19.6,4.7c-0.9,0-1.6,0.7-1.6,1.6c0,0.5,0.2,0.9,0.5,1.2h5.9c-1-0.7-1.9-1.3-2.6-1.8l-0.1-0.1
	c-0.3-0.2-0.6-0.4-0.8-0.5l-0.1,0L20.6,5l-0.1-0.1l-0.1,0C20.2,4.8,19.9,4.7,19.6,4.7L19.6,4.7z"/>
<g>
	<path class="st1" d="M12,38.4c0,0.7-0.1,1.3-0.3,1.9c0.4,0.3,0.8,0.6,1.2,1c0.4,0.4,0.7,0.7,1,1.1L13.2,43
		c-0.3-0.3-0.6-0.6-0.9-0.9c-0.3-0.3-0.6-0.6-0.9-0.9c-0.2,0.4-0.5,0.8-0.9,1.1c-0.3,0.4-0.7,0.6-1.2,0.9l-0.7-0.6
		c0.8-0.4,1.4-1,1.8-1.7s0.6-1.5,0.5-2.4H12z M15.8,46.3h-5.3v-2.6h1v1.7h4.3V46.3z M13.1,40.7v-0.9h1.6v-1.6h1v6h-1v-3.5L13.1,40.7
		L13.1,40.7z"/>
	<path class="st1" d="M20.5,43v-0.7H17v-0.8h7.9v0.8h-3.4V43h2.2v2.1h-4.4v0.6h4.6v0.8h-5.6v-2.2h4.4v-0.5h-4.4V43L20.5,43L20.5,43z
		 M18.3,41v-2.6h5.3V41H18.3z M22.6,39.2h-3.3v0.9h3.3V39.2z"/>
	<path class="st1" d="M25.5,40.6v-0.9h2.1v-1.3h1v1.3h2.1v0.9H25.5z M30.1,42.9c0,0.2-0.1,0.5-0.1,0.7c-0.1,0.2-0.2,0.4-0.4,0.6
		c-0.2,0.2-0.4,0.3-0.6,0.4c-0.2,0.1-0.5,0.1-0.9,0.1c-0.3,0-0.6-0.1-0.9-0.1c-0.2-0.1-0.5-0.2-0.6-0.4c-0.2-0.2-0.3-0.4-0.4-0.6
		c-0.1-0.2-0.1-0.5-0.1-0.7c0-0.2,0.1-0.5,0.1-0.7c0.1-0.2,0.2-0.4,0.4-0.6c0.2-0.2,0.4-0.3,0.6-0.4C27.4,41,27.7,41,28,41
		c0.3,0,0.6,0.1,0.9,0.1c0.2,0.1,0.5,0.2,0.6,0.4c0.2,0.2,0.3,0.4,0.4,0.6C30.1,42.4,30.1,42.6,30.1,42.9z M27,42.9
		c0,0.3,0.1,0.6,0.3,0.7c0.2,0.2,0.4,0.3,0.7,0.3c0.3,0,0.6-0.1,0.7-0.3c0.2-0.2,0.3-0.4,0.3-0.7c0-0.3-0.1-0.5-0.3-0.7
		c-0.2-0.2-0.4-0.3-0.7-0.3c-0.3,0-0.6,0.1-0.7,0.3C27.1,42.3,27,42.6,27,42.9z M33.3,42.5H32v4h-1v-8.3h1v3.4h1.3V42.5z"/>
	<path class="st1" d="M34,44.1c0.5-0.3,1-0.6,1.4-0.9c0.4-0.3,0.7-0.7,1-1.1c0.3-0.4,0.5-0.7,0.6-1.2c0.1-0.4,0.2-0.8,0.3-1.2
		c-0.7,0-1.3,0-2,0h-1v-0.9h2.7c0.2,0,0.4,0,0.7,0c0.2,0,0.5,0,0.7,0c0,0.6-0.1,1.2-0.3,1.8c-0.2,0.5-0.4,1.1-0.7,1.6
		c-0.3,0.5-0.7,0.9-1.2,1.3c-0.5,0.4-1,0.8-1.7,1.2L34,44.1z M39.8,38.2h1v8.3h-1V38.2z"/>
</g>
</svg>
